{"title":"Hrùtar aka Rams (2015) - DVDRip x265 HEVC - ICELANDIC (ENG SUBS","uid":13801787,"size":1116264694,"categoryP":"video","categoryS":"movies","magnet":"?xt=urn:btih:4d0f1af8e439d8beed5fde7108752abbef24cba8&amp;dn=Hru%CC%80tar+aka+Rams+%282015%29+-+DVDRip+x265+HEVC+-+ICELANDIC+%28ENG+SUBS&amp;tr=udp%3A%2F%2Ftracker.leechers-paradise.org%3A6969&amp;tr=udp%3A%2F%2Fzer0day.ch%3A1337&amp;tr=udp%3A%2F%2Fopen.demonii.com%3A1337&amp;tr=udp%3A%2F%2Ftracker.coppersurfer.tk%3A6969&amp;tr=udp%3A%2F%2Fexodus.desync.com%3A6969","seeders":9,"leechers":2,"uploader":"BRSHNKV","files":2,"time":1457462290,"description":"In a remote Icelandic farming valley, two brothers who haven't spoken in 40 years have to come together in order to save what's dearest to them - their sheep.\r\n\r\nTechnical:\r\n\r\nFormat : MPEG-4\r\nFormat profile : Base Media / Version 2\r\nCodec ID : mp42\r\nFile size : 1.04 GiB\r\nDuration : 1h 29mn\r\nOverall bit rate mode : Variable\r\nOverall bit rate : 1 670 Kbps\r\nEncoded date : UTC 2016-03-03 12:25:36\r\nTagged date : UTC 2016-03-03 12:25:36\r\nWriting application : HandBrake 0.10.2 2015061100\r\n\r\nVideo\r\nID : 1\r\nFormat : HEVC\r\nFormat/Info : High Efficiency Video Coding\r\nFormat profile :   @Main\r\nCodec ID : hev1\r\nCodec ID/Info : High Efficiency Video Coding\r\nDuration : 1h 29mn\r\nBit rate : 1 501 Kbps\r\nWidth : 720 pixels\r\nHeight : 320 pixels\r\nDisplay aspect ratio : 2.25:1\r\nFrame rate mode : Constant\r\nFrame rate : 25.000 fps\r\nColor space : YUV\r\nChroma subsampling : 4:2:0\r\nBit depth : 8 bits\r\nBits/(Pixel*Frame) : 0.261\r\nStream size : 956 MiB (90%)\r\nWriting library : x265 1.5:[Mac OS X][clang 6.1.0][64 bit]\r\nEncoded date : UTC 2016-03-03 12:25:36\r\nTagged date : UTC 2016-03-03 12:25:36\r\nColor range : Limited\r\nColor primaries : BT.601 PAL\r\nTransfer characteristics : BT.709\r\nMatrix coefficients : BT.601\r\n\r\nAudio\r\nID : 2\r\nFormat : AAC\r\nFormat/Info : Advanced Audio Codec\r\nFormat profile : LC\r\nCodec ID : 40\r\nDuration : 1h 29mn\r\nBit rate mode : Variable\r\nBit rate : 163 Kbps\r\nChannel(s) : 2 channels\r\nChannel positions : Front: L R\r\nSampling rate : 48.0 KHz\r\nCompression mode : Lossy\r\nStream size : 104 MiB (10%)\r\nTitle : Stereo / Stereo\r\nEncoded date : UTC 2016-03-03 12:25:36\r\nTagged date : UTC 2016-03-03 12:25:36","torrent":{"xt":"urn:btih:4d0f1af8e439d8beed5fde7108752abbef24cba8","amp;dn":"Hru%CC%80tar+aka+Rams+%282015%29+-+DVDRip+x265+HEVC+-+ICELANDIC+%28ENG+SUBS","amp;tr":["udp%3A%2F%2Ftracker.leechers-paradise.org%3A6969","udp%3A%2F%2Fzer0day.ch%3A1337","udp%3A%2F%2Fopen.demonii.com%3A1337","udp%3A%2F%2Ftracker.coppersurfer.tk%3A6969","udp%3A%2F%2Fexodus.desync.com%3A6969"],"infoHash":"4d0f1af8e439d8beed5fde7108752abbef24cba8","infoHashBuffer":{"type":"Buffer","data":[77,15,26,248,228,57,216,190,237,95,222,113,8,117,42,187,239,36,203,168]},"announce":[],"urlList":[]}}